<svg width="800" height="800" viewBox="0 0 800 800" fill="none" xmlns="http://www.w3.org/2000/svg">
<path d="M363.522 592.885L363.263 592.728L363.004 592.885L350.221 600.632C342.589 599.113 333.969 600.383 324.755 603.535C315.459 606.715 305.52 611.824 295.32 617.981C280.649 626.836 265.389 637.891 250.691 648.538C244.961 652.689 239.317 656.777 233.826 660.65C224.029 667.56 214.718 673.784 206.262 678.464C197.798 683.149 190.236 686.26 183.93 686.988C177.655 687.713 172.674 686.079 169.226 681.313C165.767 676.533 163.793 668.526 163.763 656.344L350.572 543.115C354.403 540.792 358.796 539.564 363.276 539.564C367.755 539.564 372.149 540.792 375.979 543.115L562.529 656.202C559.494 660.085 555.868 661.931 551.768 662.26C547.489 662.603 542.645 661.298 537.363 658.814C526.794 653.843 514.693 644.262 502.24 634.337L501.545 633.783C489.419 624.117 476.992 614.211 465.451 608.139C466.587 608.097 467.606 608.051 468.468 608.002C469.504 607.943 470.325 607.881 470.854 607.815C470.987 607.798 471.106 607.781 471.207 607.763C471.305 607.745 471.402 607.724 471.484 607.698C471.524 607.685 471.577 607.666 471.631 607.636C471.659 607.62 471.696 607.597 471.735 607.564C471.756 607.546 471.783 607.52 471.809 607.486C471.829 607.461 471.849 607.431 471.866 607.396C471.91 607.307 471.933 607.195 471.912 607.075C471.892 606.961 471.839 606.878 471.794 606.825C471.769 606.796 471.744 606.773 471.721 606.754C471.703 606.739 471.685 606.727 471.671 606.718C471.654 606.707 471.638 606.698 471.623 606.69C471.607 606.681 471.593 606.674 471.58 606.669C471.529 606.646 471.479 606.63 471.436 606.619C471.391 606.607 471.344 606.596 471.294 606.586C471.196 606.567 471.077 606.55 470.94 606.533C470.665 606.5 470.295 606.468 469.824 606.438C468.279 606.337 465.581 606.246 461.442 606.173C451.128 601.506 441.518 600.342 433.616 605.99L379.424 602.522L363.522 592.885ZM586.551 445.877C587.078 439.041 587.521 433.648 587.868 430.139L588.763 430.149L588.552 430.144C588.763 430.149 588.763 430.148 588.763 430.148L588.763 430.144V430.137L588.763 430.128L588.765 430.067L588.77 429.825L588.792 428.879C588.81 428.049 588.837 426.83 588.87 425.272C588.936 422.157 589.028 417.686 589.13 412.266C589.333 401.425 589.578 386.785 589.741 371.59C589.904 356.396 589.985 340.644 589.863 327.579C589.741 314.532 589.416 304.121 588.758 299.64L588.754 299.615L588.748 299.592C588.167 297.26 587.828 293.396 587.628 288.347C587.427 283.311 587.366 277.141 587.326 270.221C587.318 268.724 587.31 267.191 587.302 265.628C587.239 252.75 587.166 237.773 586.418 222.936C585.581 206.302 583.895 189.812 580.417 176.627C578.678 170.035 576.486 164.247 573.712 159.674C570.951 155.121 567.596 151.743 563.512 150C559.577 147.113 557.066 145.55 555.215 144.887C554.273 144.55 553.479 144.436 552.741 144.51C552.005 144.585 551.364 144.843 550.728 145.187C550.318 145.409 549.886 145.681 549.427 145.969C549.193 146.117 548.951 146.269 548.702 146.421C547.949 146.88 547.076 147.372 545.979 147.842C543.921 148.724 541.044 149.54 536.676 149.878C541.164 140.913 542.655 133.83 541.688 128.35C540.686 122.67 537.06 118.805 531.64 116.4C526.241 114.005 519.039 113.043 510.777 113.13C502.508 113.218 493.134 114.357 483.368 116.198C463.834 119.88 442.679 126.377 425.542 132.929C416.973 136.205 409.401 139.497 403.533 142.462C400.6 143.944 398.086 145.348 396.084 146.629C394.34 147.746 392.962 148.783 392.034 149.713C391.107 148.817 389.784 147.972 388.141 147.166C386.254 146.242 383.908 145.354 381.175 144.5C375.709 142.794 368.654 141.212 360.531 139.749C344.283 136.822 323.713 134.361 302.94 132.327C282.164 130.293 261.175 128.685 244.085 127.466C237.584 127.002 231.649 126.595 226.505 126.242C219.038 125.73 213.239 125.332 209.792 125.042C214.76 120.662 217.797 117.69 219.242 115.882C219.625 115.402 219.911 114.986 220.091 114.634C220.257 114.311 220.395 113.929 220.297 113.574C220.242 113.372 220.117 113.207 219.944 113.098C219.783 112.997 219.602 112.956 219.439 112.943C219.118 112.916 218.727 112.984 218.304 113.1C216.609 113.565 213.587 115.049 209.723 117.195C205.838 119.351 201.051 122.206 195.801 125.449C174.803 138.42 146.323 157.658 138.371 163.495C136.313 165.007 133.859 167.92 131.307 171.825C128.748 175.741 126.066 180.695 123.561 186.328C119.278 195.962 115.504 207.606 113.763 219.475V125.437C113.763 118.94 116.344 112.708 120.939 108.113C125.534 103.519 131.765 100.938 138.263 100.938H588.263C594.761 100.938 600.993 103.519 605.587 108.113C610.182 112.708 612.763 118.94 612.763 125.437V700.437C612.764 704.785 611.609 709.054 609.415 712.806C607.221 716.559 604.069 719.661 600.281 721.793C596.493 723.926 592.205 725.012 587.859 724.94C583.512 724.868 579.263 723.641 575.548 721.385L575.288 721.812L575.547 721.385L381.273 603.643L433.171 606.963C433.177 606.977 433.183 606.991 433.19 607.004C433.271 607.16 433.4 607.259 433.498 607.321C433.602 607.386 433.722 607.438 433.844 607.482C434.088 607.57 434.401 607.644 434.762 607.709C435.127 607.775 435.557 607.834 436.042 607.888C437.978 608.103 440.866 608.237 444.159 608.31C450.251 608.444 457.783 608.372 463.39 608.207C463.848 608.434 464.307 608.669 464.767 608.909C476.284 614.926 488.728 624.845 500.969 634.602L501.617 635.119C514.037 645.018 526.239 654.687 536.938 659.719C542.29 662.236 547.32 663.62 551.848 663.257C556.398 662.892 560.391 660.766 563.651 656.379C564.075 655.904 564.473 655.202 564.854 654.324C565.244 653.428 565.629 652.317 566.011 651.013C566.775 648.404 567.536 644.988 568.291 640.904C569.802 632.734 571.298 621.847 572.753 609.299C575.663 584.203 578.412 552.43 580.783 522.393C582.243 503.905 583.56 486.066 584.684 470.847C585.386 461.342 586.013 452.859 586.551 445.877ZM113.763 700.437V244.976C114.998 251.902 117.421 258.432 121.394 264.144C128.712 274.667 141.234 282.335 161.053 284.633C138.076 293.497 127.544 315.361 124.069 342.294C120.493 370.017 124.366 403.257 129.94 433.643C132.728 448.841 135.944 463.336 138.871 476.083C139.599 479.252 140.309 482.311 140.99 485.247C143.049 494.125 144.844 501.865 146.075 508.034C146.894 512.139 147.458 515.53 147.686 518.089C147.799 519.369 147.827 520.426 147.764 521.251C147.699 522.092 147.544 522.626 147.349 522.918C147.258 523.054 147.168 523.122 147.085 523.156C147.002 523.191 146.886 523.209 146.715 523.177C146.349 523.109 145.817 522.829 145.091 522.224C143.655 521.027 141.681 518.743 139.071 515.203L138.18 515.605C147.93 561.102 148.04 577.157 147.249 583.482C147.053 585.055 146.8 586.028 146.621 586.716L146.598 586.805C146.438 587.418 146.302 587.937 146.448 588.472C146.596 589.016 147.015 589.517 147.67 590.223C147.896 590.467 148.156 590.741 148.457 591.058C149.068 591.702 149.846 592.522 150.851 593.63C157.154 602.125 158.866 608.642 158.5 614.014C158.146 619.186 155.868 623.369 153.694 627.36C153.597 627.536 153.502 627.712 153.406 627.888C151.172 631.998 149.111 635.994 149.902 640.571C150.688 645.115 154.251 650.09 162.763 656.317C162.79 668.577 164.767 676.856 168.415 681.899C172.126 687.029 177.507 688.737 184.044 687.982C190.55 687.23 198.251 684.041 206.747 679.339C215.251 674.632 224.598 668.382 234.403 661.467C239.917 657.578 245.576 653.479 251.313 649.322C265.999 638.684 281.204 627.669 295.837 618.837C306.007 612.698 315.878 607.629 325.078 604.481C333.757 601.512 341.804 600.266 348.929 601.415L150.979 721.385L151.238 721.812L150.979 721.385C147.26 723.641 143.008 724.866 138.659 724.935C134.311 725.004 130.022 723.914 126.234 721.777L125.988 722.212L126.234 721.777C122.45 719.644 119.302 716.545 117.11 712.795C114.919 709.045 113.764 704.78 113.763 700.437ZM162.763 655.074C154.745 649.1 151.588 644.452 150.888 640.401C150.164 636.215 152.027 632.52 154.285 628.366C154.387 628.177 154.491 627.986 154.595 627.795C156.754 623.836 159.129 619.478 159.497 614.082C159.885 608.402 158.051 601.65 151.64 593.014L151.625 592.995L151.609 592.977C150.59 591.853 149.784 591.003 149.165 590.351C148.869 590.04 148.616 589.773 148.403 589.543C147.712 588.797 147.485 588.475 147.413 588.21C147.345 587.961 147.396 587.71 147.589 586.968C147.772 586.262 148.037 585.242 148.242 583.606C149.042 577.206 148.914 561.426 139.629 517.606C141.6 520.164 143.193 521.943 144.451 522.992C145.212 523.627 145.906 524.043 146.531 524.16C146.855 524.22 147.174 524.203 147.471 524.079C147.768 523.955 148.001 523.74 148.18 523.475C148.523 522.962 148.693 522.214 148.761 521.327C148.83 520.425 148.798 519.307 148.682 518.001C148.45 515.386 147.876 511.952 147.056 507.838C145.822 501.652 144.021 493.891 141.961 485.007C141.28 482.074 140.572 479.02 139.846 475.859C136.919 463.117 133.708 448.639 130.924 433.462C125.354 403.099 121.505 369.985 125.061 342.422C128.585 315.112 139.351 293.393 162.763 285.065V655.074ZM350.054 542.26L163.763 655.175V150.937H391.814L392.039 151.19L392.263 150.937H535.013L534.986 150.989L535.847 150.937H562.763V655.175L376.497 542.26C372.511 539.843 367.938 538.564 363.276 538.564C358.613 538.564 354.041 539.843 350.054 542.26ZM162.763 150.437V283.811C142.226 281.771 129.524 274.082 122.215 263.573C116.459 255.297 114.01 245.219 113.763 234.656V231.013C113.804 229.213 113.904 227.404 114.058 225.592C115.227 211.823 119.501 197.921 124.475 186.734C126.961 181.142 129.619 176.237 132.144 172.372C134.678 168.495 137.053 165.704 138.963 164.301C146.888 158.484 175.345 139.261 196.326 126.3C201.571 123.06 206.343 120.215 210.208 118.069C214.093 115.912 217.01 114.492 218.569 114.064C218.916 113.969 219.155 113.935 219.305 113.937C219.287 113.992 219.256 114.071 219.201 114.178C219.065 114.444 218.826 114.8 218.461 115.258C216.996 117.091 213.752 120.251 208.254 125.061L207.378 125.828L208.538 125.935C211.758 126.233 218.062 126.665 226.461 127.242C231.602 127.594 237.529 128.001 244.014 128.464C261.101 129.682 282.08 131.289 302.842 133.322C323.607 135.355 344.145 137.813 360.353 140.733C368.459 142.193 375.468 143.766 380.877 145.455C383.581 146.299 385.875 147.17 387.701 148.064C388.97 148.686 389.997 149.312 390.775 149.937H163.263H162.763V150.437ZM540.703 128.524C541.634 133.796 540.174 140.809 535.526 149.937H393.255C394.083 149.202 395.212 148.375 396.624 147.471C398.588 146.214 401.069 144.827 403.984 143.355C409.814 140.409 417.353 137.13 425.899 133.863C442.994 127.327 464.09 120.849 483.553 117.181C493.284 115.346 502.596 114.217 510.788 114.13C518.988 114.044 526.025 115.003 531.234 117.314C536.421 119.615 539.771 123.24 540.703 128.524ZM554.878 145.828C556.395 146.372 558.478 147.612 561.723 149.937H542.836C544.225 149.59 545.383 149.185 546.373 148.761C547.528 148.266 548.445 147.749 549.222 147.275C549.503 147.104 549.759 146.942 550 146.791C550.438 146.515 550.822 146.273 551.203 146.067C551.777 145.757 552.286 145.562 552.842 145.505C553.397 145.449 554.039 145.528 554.878 145.828ZM563.763 654.311V151.212C567.311 152.92 570.316 156.002 572.857 160.192C575.563 164.654 577.725 170.342 579.451 176.882C582.901 189.965 584.583 206.371 585.42 222.986C586.166 237.799 586.239 252.752 586.302 265.632C586.31 267.195 586.318 268.728 586.326 270.227C586.366 277.145 586.427 283.332 586.628 288.387C586.828 293.413 587.167 297.364 587.772 299.809C588.415 304.221 588.741 314.541 588.863 327.589C588.985 340.644 588.904 356.388 588.741 371.58C588.578 386.771 588.334 401.408 588.13 412.247C588.031 417.516 587.941 421.887 587.876 424.988C587.848 424.998 587.821 425.01 587.795 425.023C587.684 425.084 587.621 425.169 587.594 425.209C587.587 425.219 587.58 425.23 587.574 425.241C587.553 425.277 587.537 425.311 587.525 425.339C587.494 425.411 587.47 425.492 587.449 425.571C587.368 425.884 587.281 426.432 587.188 427.171C586.808 430.153 586.255 436.719 585.554 445.8C585.015 452.79 584.388 461.276 583.686 470.781C582.563 485.996 581.246 503.825 579.787 522.314C577.415 552.349 574.668 584.107 571.76 609.184C570.306 621.724 568.813 632.585 567.308 640.722C566.555 644.792 565.802 648.17 565.051 650.732C564.676 652.013 564.304 653.081 563.937 653.926C563.879 654.061 563.821 654.189 563.763 654.311ZM377.267 602.384L351.934 600.764L363.263 593.897L377.267 602.384ZM444.181 607.31C441.494 607.25 439.099 607.151 437.282 607.002C446.383 607.011 453.334 607.057 458.509 607.127C459.473 607.14 460.375 607.154 461.217 607.169C461.283 607.199 461.348 607.229 461.414 607.259C456.102 607.385 449.573 607.429 444.181 607.31ZM458.813 606.131C458.717 606.13 458.62 606.129 458.523 606.127C452.992 606.053 445.44 606.005 435.411 606C442.092 601.926 450.052 602.579 458.813 606.131ZM270.856 299.579L270.842 299.629L270.839 299.681C270.164 310.47 271.746 321.281 275.485 331.423C279.22 341.555 285.026 350.798 292.531 358.562C312.633 385.628 336.326 409.857 362.957 430.532L363.263 430.77L363.57 430.533C390.263 409.839 414.007 385.6 434.145 358.487C441.652 350.724 447.458 341.481 451.194 331.349C454.933 321.206 456.514 310.395 455.837 299.606L455.835 299.566L455.826 299.527C454.086 291.872 449.641 285.103 443.307 280.465C436.974 275.826 429.178 273.631 421.355 274.283C413.533 274.935 406.208 278.39 400.73 284.013C395.251 289.635 391.988 297.047 391.539 304.884L391.539 304.885C391.194 311.146 388.461 317.037 383.903 321.344C379.346 325.652 373.31 328.047 367.039 328.037H367.038H359.663H359.662C353.391 328.047 347.356 325.652 342.798 321.344C338.24 317.037 335.507 311.146 335.162 304.885L335.162 304.873L335.161 304.861C334.369 297.143 330.995 289.918 325.585 284.356C320.175 278.794 313.046 275.222 305.353 274.217L305.321 274.212H305.288H305.284H305.28H305.275H305.271H305.267H305.263H305.258H305.254H305.25H305.246H305.241H305.237H305.233H305.229H305.224H305.22H305.216H305.212H305.207H305.203H305.199H305.195H305.19H305.186H305.182H305.178H305.173H305.169H305.165H305.16H305.156H305.152H305.148H305.143H305.139H305.135H305.131H305.126H305.122H305.118H305.114H305.109H305.105H305.101H305.096H305.092H305.088H305.084H305.079H305.075H305.071H305.067H305.062H305.058H305.054H305.049H305.045H305.041H305.037H305.032H305.028H305.024H305.02H305.015H305.011H305.007H305.002H304.998H304.994H304.99H304.985H304.981H304.977H304.972H304.968H304.964H304.96H304.955H304.951H304.947H304.942H304.938H304.934H304.93H304.925H304.921H304.917H304.912H304.908H304.904H304.9H304.895H304.891H304.887H304.882H304.878H304.874H304.87H304.865H304.861H304.857H304.852H304.848H304.844H304.84H304.835H304.831H304.827H304.822H304.818H304.814H304.81H304.805H304.801H304.797H304.792H304.788H304.784H304.78H304.775H304.771H304.767H304.762H304.758H304.754H304.749H304.745H304.741H304.737H304.732H304.728H304.724H304.719H304.715H304.711H304.707H304.702H304.698H304.694H304.689H304.685H304.681H304.676H304.672H304.668H304.664H304.659H304.655H304.651H304.646H304.642H304.638H304.633H304.629H304.625H304.621H304.616H304.612H304.608H304.603H304.599H304.595H304.591H304.586H304.582H304.578H304.573H304.569H304.565H304.56H304.556H304.552H304.548H304.543H304.539H304.535H304.53H304.526H304.522H304.517H304.513H304.509H304.505H304.5H304.496H304.492H304.487H304.483H304.479H304.475H304.47H304.466H304.462H304.457H304.453H304.449H304.444H304.44H304.436H304.432H304.427H304.423H304.419H304.414H304.41H304.406H304.401H304.397H304.393H304.389H304.384H304.38H304.376H304.371H304.367H304.363H304.359H304.354H304.35H304.346H304.341H304.337H304.333H304.328H304.324H304.32H304.316H304.311H304.307H304.303H304.298H304.294H304.29H304.286H304.281H304.277H304.273H304.268H304.264H304.26H304.256H304.251H304.247H304.243H304.238H304.234H304.23H304.226H304.221H304.217H304.213H304.208H304.204H304.2H304.196H304.191H304.187H304.183H304.178H304.174H304.17H304.166H304.161H304.157H304.153H304.148H304.144H304.14H304.136H304.131H304.127H304.123H304.118H304.114H304.11H304.106H304.101H304.097H304.093H304.089H304.084H304.08H304.076H304.071H304.067H304.063H304.059H304.054H304.05H304.046H304.041H304.037H304.033H304.029H304.024H304.02H304.016H304.012H304.007H304.003H303.999H303.995H303.99H303.986H303.982H303.977H303.973H303.969H303.965H303.96H303.956H303.952H303.948H303.943H303.939H303.935H303.931H303.926H303.922H303.918H303.914H303.909H303.905H303.901H303.896H303.892H303.888H303.884H303.879H303.875H303.871H303.867H303.862H303.858H303.854H303.85H303.845H303.841H303.837H303.833H303.828H303.824H303.82H303.816H303.811H303.807H303.803H303.799H303.794H303.79H303.786H303.782H303.777H303.773H303.769H303.765H303.761H303.756H303.752H303.748H303.744H303.739H303.735H303.731H303.727H303.722H303.718H303.714H303.71H303.705H303.701H303.697H303.693H303.689H303.684H303.68H303.676H303.672H303.667H303.663H303.659H303.655H303.651H303.646H303.642H303.638H303.634H303.629H303.625H303.621H303.617H303.613H303.608H303.604H303.6H303.596H303.592H303.587H303.583H303.579H303.575H303.57H303.566H303.562H303.558H303.554H303.549H303.545H303.541H303.537H303.533H303.528H303.524H303.52H303.516H303.512H303.507H303.503H303.499H303.495H303.491H303.486H303.482H303.478H303.474H303.47H303.466H303.461H303.457H303.453H303.449H303.445H303.44H303.436H303.432H303.428H303.424H303.42H303.415H303.411H303.407H303.403H303.399H303.395H303.39H303.386H303.382H303.378H303.374H303.369H303.365H303.361H303.357H303.353H303.349H303.345H303.34H303.336H303.332H303.328H303.324H303.32H303.315H303.311H303.307H303.303H303.299H303.295H303.291H303.286H303.282H303.278H303.274H303.27H303.266H303.262H303.257H303.253H303.249H303.245H303.241H303.237H303.233H303.228H303.224H303.22H303.216H303.212H303.208H303.204H303.2H303.195H303.191H303.187H303.183H303.179H303.175H303.171H303.167H303.162H303.158H303.154H303.15H303.146H303.142H303.138H303.134H303.13H303.125H303.121H303.117H303.113H303.105L303.097 274.213C295.721 274.453 288.615 277.044 282.815 281.607C277.016 286.17 272.826 292.467 270.856 299.579Z" fill="#F34333"/>
<path d="M363.522 592.885L363.263 592.728L363.004 592.885L350.221 600.632C342.589 599.113 333.969 600.383 324.755 603.535C315.459 606.715 305.52 611.824 295.32 617.981C280.649 626.836 265.389 637.891 250.691 648.538C244.961 652.689 239.317 656.777 233.826 660.65C224.029 667.56 214.718 673.784 206.262 678.464C197.798 683.149 190.236 686.26 183.93 686.988C177.655 687.713 172.674 686.079 169.226 681.313C165.767 676.533 163.793 668.526 163.763 656.344L350.572 543.115C354.403 540.792 358.796 539.564 363.276 539.564C367.755 539.564 372.149 540.792 375.979 543.115L562.529 656.202C559.494 660.085 555.868 661.931 551.768 662.26C547.489 662.603 542.645 661.298 537.363 658.814C526.794 653.843 514.693 644.262 502.24 634.337L501.545 633.783C489.419 624.117 476.992 614.211 465.451 608.139C466.587 608.097 467.606 608.051 468.468 608.002C469.504 607.943 470.325 607.881 470.854 607.815C470.987 607.798 471.106 607.781 471.207 607.763C471.305 607.745 471.402 607.724 471.484 607.698C471.524 607.685 471.577 607.666 471.631 607.636C471.659 607.62 471.696 607.597 471.735 607.564C471.756 607.546 471.783 607.52 471.809 607.486C471.829 607.461 471.849 607.431 471.866 607.396C471.91 607.307 471.933 607.195 471.912 607.075C471.892 606.961 471.839 606.878 471.794 606.825C471.769 606.796 471.744 606.773 471.721 606.754C471.703 606.739 471.685 606.727 471.671 606.718C471.654 606.707 471.638 606.698 471.623 606.69C471.607 606.681 471.593 606.674 471.58 606.669C471.529 606.646 471.479 606.63 471.436 606.619C471.391 606.607 471.344 606.596 471.294 606.586C471.196 606.567 471.077 606.55 470.94 606.533C470.665 606.5 470.295 606.468 469.824 606.438C468.279 606.337 465.581 606.246 461.442 606.173C451.128 601.506 441.518 600.342 433.616 605.99L379.424 602.522L363.522 592.885ZM586.551 445.877C587.078 439.041 587.521 433.648 587.868 430.139L588.763 430.149L588.552 430.144C588.763 430.149 588.763 430.148 588.763 430.148L588.763 430.144V430.137L588.763 430.128L588.765 430.067L588.77 429.825L588.792 428.879C588.81 428.049 588.837 426.83 588.87 425.272C588.936 422.157 589.028 417.686 589.13 412.266C589.333 401.425 589.578 386.785 589.741 371.59C589.904 356.396 589.985 340.644 589.863 327.579C589.741 314.532 589.416 304.121 588.758 299.64L588.754 299.615L588.748 299.592C588.167 297.26 587.828 293.396 587.628 288.347C587.427 283.311 587.366 277.141 587.326 270.221C587.318 268.724 587.31 267.191 587.302 265.628C587.239 252.75 587.166 237.773 586.418 222.936C585.581 206.302 583.895 189.812 580.417 176.627C578.678 170.035 576.486 164.247 573.712 159.674C570.951 155.121 567.596 151.743 563.512 150C559.577 147.113 557.066 145.55 555.215 144.887C554.273 144.55 553.479 144.436 552.741 144.51C552.005 144.585 551.364 144.843 550.728 145.187C550.318 145.409 549.886 145.681 549.427 145.969C549.193 146.117 548.951 146.269 548.702 146.421C547.949 146.88 547.076 147.372 545.979 147.842C543.921 148.724 541.044 149.54 536.676 149.878C541.164 140.913 542.655 133.83 541.688 128.35C540.686 122.67 537.06 118.805 531.64 116.4C526.241 114.005 519.039 113.043 510.777 113.13C502.508 113.218 493.134 114.357 483.368 116.198C463.834 119.88 442.679 126.377 425.542 132.929C416.973 136.205 409.401 139.497 403.533 142.462C400.6 143.944 398.086 145.348 396.084 146.629C394.34 147.746 392.962 148.783 392.034 149.713C391.107 148.817 389.784 147.972 388.141 147.166C386.254 146.242 383.908 145.354 381.175 144.5C375.709 142.794 368.654 141.212 360.531 139.749C344.283 136.822 323.713 134.361 302.94 132.327C282.164 130.293 261.175 128.685 244.085 127.466C237.584 127.002 231.649 126.595 226.505 126.242C219.038 125.73 213.239 125.332 209.792 125.042C214.76 120.662 217.797 117.69 219.242 115.882C219.625 115.402 219.911 114.986 220.091 114.634C220.257 114.311 220.395 113.929 220.297 113.574C220.242 113.372 220.117 113.207 219.944 113.098C219.783 112.997 219.602 112.956 219.439 112.943C219.118 112.916 218.727 112.984 218.304 113.1C216.609 113.565 213.587 115.049 209.723 117.195C205.838 119.351 201.051 122.206 195.801 125.449C174.803 138.42 146.323 157.658 138.371 163.495C136.313 165.007 133.859 167.92 131.307 171.825C128.748 175.741 126.066 180.695 123.561 186.328C119.278 195.962 115.504 207.606 113.763 219.475V125.437C113.763 118.94 116.344 112.708 120.939 108.113C125.534 103.519 131.765 100.938 138.263 100.938H588.263C594.761 100.938 600.993 103.519 605.587 108.113C610.182 112.708 612.763 118.94 612.763 125.437V700.437C612.764 704.785 611.609 709.054 609.415 712.806C607.221 716.559 604.069 719.661 600.281 721.793C596.493 723.926 592.205 725.012 587.859 724.94C583.512 724.868 579.263 723.641 575.548 721.385L575.288 721.812L575.547 721.385L381.273 603.643L433.171 606.963C433.177 606.977 433.183 606.991 433.19 607.004C433.271 607.16 433.4 607.259 433.498 607.321C433.602 607.386 433.722 607.438 433.844 607.482C434.088 607.57 434.401 607.644 434.762 607.709C435.127 607.775 435.557 607.834 436.042 607.888C437.978 608.103 440.866 608.237 444.159 608.31C450.251 608.444 457.783 608.372 463.39 608.207C463.848 608.434 464.307 608.669 464.767 608.909C476.284 614.926 488.728 624.845 500.969 634.602L501.617 635.119C514.037 645.018 526.239 654.687 536.938 659.719C542.29 662.236 547.32 663.62 551.848 663.257C556.398 662.892 560.391 660.766 563.651 656.379C564.075 655.904 564.473 655.202 564.854 654.324C565.244 653.428 565.629 652.317 566.011 651.013C566.775 648.404 567.536 644.988 568.291 640.904C569.802 632.734 571.298 621.847 572.753 609.299C575.663 584.203 578.412 552.43 580.783 522.393C582.243 503.905 583.56 486.066 584.684 470.847C585.386 461.342 586.013 452.859 586.551 445.877ZM113.763 700.437V244.976C114.998 251.902 117.421 258.432 121.394 264.144C128.712 274.667 141.234 282.335 161.053 284.633C138.076 293.497 127.544 315.361 124.069 342.294C120.493 370.017 124.366 403.257 129.94 433.643C132.728 448.841 135.944 463.336 138.871 476.083C139.599 479.252 140.309 482.311 140.99 485.247C143.049 494.125 144.844 501.865 146.075 508.034C146.894 512.139 147.458 515.53 147.686 518.089C147.799 519.369 147.827 520.426 147.764 521.251C147.699 522.092 147.544 522.626 147.349 522.918C147.258 523.054 147.168 523.122 147.085 523.156C147.002 523.191 146.886 523.209 146.715 523.177C146.349 523.109 145.817 522.829 145.091 522.224C143.655 521.027 141.681 518.743 139.071 515.203L138.18 515.605C147.93 561.102 148.04 577.157 147.249 583.482C147.053 585.055 146.8 586.028 146.621 586.716L146.598 586.805C146.438 587.418 146.302 587.937 146.448 588.472C146.596 589.016 147.015 589.517 147.67 590.223C147.896 590.467 148.156 590.741 148.457 591.058C149.068 591.702 149.846 592.522 150.851 593.63C157.154 602.125 158.866 608.642 158.5 614.014C158.146 619.186 155.868 623.369 153.694 627.36C153.597 627.536 153.502 627.712 153.406 627.888C151.172 631.998 149.111 635.994 149.902 640.571C150.688 645.115 154.251 650.09 162.763 656.317C162.79 668.577 164.767 676.856 168.415 681.899C172.126 687.029 177.507 688.737 184.044 687.982C190.55 687.23 198.251 684.041 206.747 679.339C215.251 674.632 224.598 668.382 234.403 661.467C239.917 657.578 245.576 653.479 251.313 649.322C265.999 638.684 281.204 627.669 295.837 618.837C306.007 612.698 315.878 607.629 325.078 604.481C333.757 601.512 341.804 600.266 348.929 601.415L150.979 721.385L151.238 721.812L150.979 721.385C147.26 723.641 143.008 724.866 138.659 724.935C134.311 725.004 130.022 723.914 126.234 721.777L125.988 722.212L126.234 721.777C122.45 719.644 119.302 716.545 117.11 712.795C114.919 709.045 113.764 704.78 113.763 700.437ZM162.763 655.074C154.745 649.1 151.588 644.452 150.888 640.401C150.164 636.215 152.027 632.52 154.285 628.366C154.387 628.177 154.491 627.986 154.595 627.795C156.754 623.836 159.129 619.478 159.497 614.082C159.885 608.402 158.051 601.65 151.64 593.014L151.625 592.995L151.609 592.977C150.59 591.853 149.784 591.003 149.165 590.351C148.869 590.04 148.616 589.773 148.403 589.543C147.712 588.797 147.485 588.475 147.413 588.21C147.345 587.961 147.396 587.71 147.589 586.968C147.772 586.262 148.037 585.242 148.242 583.606C149.042 577.206 148.914 561.426 139.629 517.606C141.6 520.164 143.193 521.943 144.451 522.992C145.212 523.627 145.906 524.043 146.531 524.16C146.855 524.22 147.174 524.203 147.471 524.079C147.768 523.955 148.001 523.74 148.18 523.475C148.523 522.962 148.693 522.214 148.761 521.327C148.83 520.425 148.798 519.307 148.682 518.001C148.45 515.386 147.876 511.952 147.056 507.838C145.822 501.652 144.021 493.891 141.961 485.007C141.28 482.074 140.572 479.02 139.846 475.859C136.919 463.117 133.708 448.639 130.924 433.462C125.354 403.099 121.505 369.985 125.061 342.422C128.585 315.112 139.351 293.393 162.763 285.065V655.074ZM350.054 542.26L163.763 655.175V150.937H391.814L392.039 151.19L392.263 150.937H535.013L534.986 150.989L535.847 150.937H562.763V655.175L376.497 542.26C372.511 539.843 367.938 538.564 363.276 538.564C358.613 538.564 354.041 539.843 350.054 542.26ZM162.763 150.437V283.811C142.226 281.771 129.524 274.082 122.215 263.573C116.459 255.297 114.01 245.219 113.763 234.656V231.013C113.804 229.213 113.904 227.404 114.058 225.592C115.227 211.823 119.501 197.921 124.475 186.734C126.961 181.142 129.619 176.237 132.144 172.372C134.678 168.495 137.053 165.704 138.963 164.301C146.888 158.484 175.345 139.261 196.326 126.3C201.571 123.06 206.343 120.215 210.208 118.069C214.093 115.912 217.01 114.492 218.569 114.064C218.916 113.969 219.155 113.935 219.305 113.937C219.287 113.992 219.256 114.071 219.201 114.178C219.065 114.444 218.826 114.8 218.461 115.258C216.996 117.091 213.752 120.251 208.254 125.061L207.378 125.828L208.538 125.935C211.758 126.233 218.062 126.665 226.461 127.242C231.602 127.594 237.529 128.001 244.014 128.464C261.101 129.682 282.08 131.289 302.842 133.322C323.607 135.355 344.145 137.813 360.353 140.733C368.459 142.193 375.468 143.766 380.877 145.455C383.581 146.299 385.875 147.17 387.701 148.064C388.97 148.686 389.997 149.312 390.775 149.937H163.263H162.763V150.437ZM540.703 128.524C541.634 133.796 540.174 140.809 535.526 149.937H393.255C394.083 149.202 395.212 148.375 396.624 147.471C398.588 146.214 401.069 144.827 403.984 143.355C409.814 140.409 417.353 137.13 425.899 133.863C442.994 127.327 464.09 120.849 483.553 117.181C493.284 115.346 502.596 114.217 510.788 114.13C518.988 114.044 526.025 115.003 531.234 117.314C536.421 119.615 539.771 123.24 540.703 128.524ZM554.878 145.828C556.395 146.372 558.478 147.612 561.723 149.937H542.836C544.225 149.59 545.383 149.185 546.373 148.761C547.528 148.266 548.445 147.749 549.222 147.275C549.503 147.104 549.759 146.942 550 146.791C550.438 146.515 550.822 146.273 551.203 146.067C551.777 145.757 552.286 145.562 552.842 145.505C553.397 145.449 554.039 145.528 554.878 145.828ZM563.763 654.311V151.212C567.311 152.92 570.316 156.002 572.857 160.192C575.563 164.654 577.725 170.342 579.451 176.882C582.901 189.965 584.583 206.371 585.42 222.986C586.166 237.799 586.239 252.752 586.302 265.632C586.31 267.195 586.318 268.728 586.326 270.227C586.366 277.145 586.427 283.332 586.628 288.387C586.828 293.413 587.167 297.364 587.772 299.809C588.415 304.221 588.741 314.541 588.863 327.589C588.985 340.644 588.904 356.388 588.741 371.58C588.578 386.771 588.334 401.408 588.13 412.247C588.031 417.516 587.941 421.887 587.876 424.988C587.848 424.998 587.821 425.01 587.795 425.023C587.684 425.084 587.621 425.169 587.594 425.209C587.587 425.219 587.58 425.23 587.574 425.241C587.553 425.277 587.537 425.311 587.525 425.339C587.494 425.411 587.47 425.492 587.449 425.571C587.368 425.884 587.281 426.432 587.188 427.171C586.808 430.153 586.255 436.719 585.554 445.8C585.015 452.79 584.388 461.276 583.686 470.781C582.563 485.996 581.246 503.825 579.787 522.314C577.415 552.349 574.668 584.107 571.76 609.184C570.306 621.724 568.813 632.585 567.308 640.722C566.555 644.792 565.802 648.17 565.051 650.732C564.676 652.013 564.304 653.081 563.937 653.926C563.879 654.061 563.821 654.189 563.763 654.311ZM377.267 602.384L351.934 600.764L363.263 593.897L377.267 602.384ZM444.181 607.31C441.494 607.25 439.099 607.151 437.282 607.002C446.383 607.011 453.334 607.057 458.509 607.127C459.473 607.14 460.375 607.154 461.217 607.169C461.283 607.199 461.348 607.229 461.414 607.259C456.102 607.385 449.573 607.429 444.181 607.31ZM458.813 606.131C458.717 606.13 458.62 606.129 458.523 606.127C452.992 606.053 445.44 606.005 435.411 606C442.092 601.926 450.052 602.579 458.813 606.131ZM270.856 299.579L270.842 299.629L270.839 299.681C270.164 310.47 271.746 321.281 275.485 331.423C279.22 341.555 285.026 350.798 292.531 358.562C312.633 385.628 336.326 409.857 362.957 430.532L363.263 430.77L363.57 430.533C390.263 409.839 414.007 385.6 434.145 358.487C441.652 350.724 447.458 341.481 451.194 331.349C454.933 321.206 456.514 310.395 455.837 299.606L455.835 299.566L455.826 299.527C454.086 291.872 449.641 285.103 443.307 280.465C436.974 275.826 429.178 273.631 421.355 274.283C413.533 274.935 406.208 278.39 400.73 284.013C395.251 289.635 391.988 297.047 391.539 304.884L391.539 304.885C391.194 311.146 388.461 317.037 383.903 321.344C379.346 325.652 373.31 328.047 367.039 328.037H367.038H359.663H359.662C353.391 328.047 347.356 325.652 342.798 321.344C338.24 317.037 335.507 311.146 335.162 304.885L335.162 304.873L335.161 304.861C334.369 297.143 330.995 289.918 325.585 284.356C320.175 278.794 313.046 275.222 305.353 274.217L305.321 274.212H305.288H305.284H305.28H305.275H305.271H305.267H305.263H305.258H305.254H305.25H305.246H305.241H305.237H305.233H305.229H305.224H305.22H305.216H305.212H305.207H305.203H305.199H305.195H305.19H305.186H305.182H305.178H305.173H305.169H305.165H305.16H305.156H305.152H305.148H305.143H305.139H305.135H305.131H305.126H305.122H305.118H305.114H305.109H305.105H305.101H305.096H305.092H305.088H305.084H305.079H305.075H305.071H305.067H305.062H305.058H305.054H305.049H305.045H305.041H305.037H305.032H305.028H305.024H305.02H305.015H305.011H305.007H305.002H304.998H304.994H304.99H304.985H304.981H304.977H304.972H304.968H304.964H304.96H304.955H304.951H304.947H304.942H304.938H304.934H304.93H304.925H304.921H304.917H304.912H304.908H304.904H304.9H304.895H304.891H304.887H304.882H304.878H304.874H304.87H304.865H304.861H304.857H304.852H304.848H304.844H304.84H304.835H304.831H304.827H304.822H304.818H304.814H304.81H304.805H304.801H304.797H304.792H304.788H304.784H304.78H304.775H304.771H304.767H304.762H304.758H304.754H304.749H304.745H304.741H304.737H304.732H304.728H304.724H304.719H304.715H304.711H304.707H304.702H304.698H304.694H304.689H304.685H304.681H304.676H304.672H304.668H304.664H304.659H304.655H304.651H304.646H304.642H304.638H304.633H304.629H304.625H304.621H304.616H304.612H304.608H304.603H304.599H304.595H304.591H304.586H304.582H304.578H304.573H304.569H304.565H304.56H304.556H304.552H304.548H304.543H304.539H304.535H304.53H304.526H304.522H304.517H304.513H304.509H304.505H304.5H304.496H304.492H304.487H304.483H304.479H304.475H304.47H304.466H304.462H304.457H304.453H304.449H304.444H304.44H304.436H304.432H304.427H304.423H304.419H304.414H304.41H304.406H304.401H304.397H304.393H304.389H304.384H304.38H304.376H304.371H304.367H304.363H304.359H304.354H304.35H304.346H304.341H304.337H304.333H304.328H304.324H304.32H304.316H304.311H304.307H304.303H304.298H304.294H304.29H304.286H304.281H304.277H304.273H304.268H304.264H304.26H304.256H304.251H304.247H304.243H304.238H304.234H304.23H304.226H304.221H304.217H304.213H304.208H304.204H304.2H304.196H304.191H304.187H304.183H304.178H304.174H304.17H304.166H304.161H304.157H304.153H304.148H304.144H304.14H304.136H304.131H304.127H304.123H304.118H304.114H304.11H304.106H304.101H304.097H304.093H304.089H304.084H304.08H304.076H304.071H304.067H304.063H304.059H304.054H304.05H304.046H304.041H304.037H304.033H304.029H304.024H304.02H304.016H304.012H304.007H304.003H303.999H303.995H303.99H303.986H303.982H303.977H303.973H303.969H303.965H303.96H303.956H303.952H303.948H303.943H303.939H303.935H303.931H303.926H303.922H303.918H303.914H303.909H303.905H303.901H303.896H303.892H303.888H303.884H303.879H303.875H303.871H303.867H303.862H303.858H303.854H303.85H303.845H303.841H303.837H303.833H303.828H303.824H303.82H303.816H303.811H303.807H303.803H303.799H303.794H303.79H303.786H303.782H303.777H303.773H303.769H303.765H303.761H303.756H303.752H303.748H303.744H303.739H303.735H303.731H303.727H303.722H303.718H303.714H303.71H303.705H303.701H303.697H303.693H303.689H303.684H303.68H303.676H303.672H303.667H303.663H303.659H303.655H303.651H303.646H303.642H303.638H303.634H303.629H303.625H303.621H303.617H303.613H303.608H303.604H303.6H303.596H303.592H303.587H303.583H303.579H303.575H303.57H303.566H303.562H303.558H303.554H303.549H303.545H303.541H303.537H303.533H303.528H303.524H303.52H303.516H303.512H303.507H303.503H303.499H303.495H303.491H303.486H303.482H303.478H303.474H303.47H303.466H303.461H303.457H303.453H303.449H303.445H303.44H303.436H303.432H303.428H303.424H303.42H303.415H303.411H303.407H303.403H303.399H303.395H303.39H303.386H303.382H303.378H303.374H303.369H303.365H303.361H303.357H303.353H303.349H303.345H303.34H303.336H303.332H303.328H303.324H303.32H303.315H303.311H303.307H303.303H303.299H303.295H303.291H303.286H303.282H303.278H303.274H303.27H303.266H303.262H303.257H303.253H303.249H303.245H303.241H303.237H303.233H303.228H303.224H303.22H303.216H303.212H303.208H303.204H303.2H303.195H303.191H303.187H303.183H303.179H303.175H303.171H303.167H303.162H303.158H303.154H303.15H303.146H303.142H303.138H303.134H303.13H303.125H303.121H303.117H303.113H303.105L303.097 274.213C295.721 274.453 288.615 277.044 282.815 281.607C277.016 286.17 272.826 292.467 270.856 299.579Z" fill="#F34333"/>
<path d="M363.522 592.885L363.263 592.728L363.004 592.885L350.221 600.632C342.589 599.113 333.969 600.383 324.755 603.535C315.459 606.715 305.52 611.824 295.32 617.981C280.649 626.836 265.389 637.891 250.691 648.538C244.961 652.689 239.317 656.777 233.826 660.65C224.029 667.56 214.718 673.784 206.262 678.464C197.798 683.149 190.236 686.26 183.93 686.988C177.655 687.713 172.674 686.079 169.226 681.313C165.767 676.533 163.793 668.526 163.763 656.344L350.572 543.115C354.403 540.792 358.796 539.564 363.276 539.564C367.755 539.564 372.149 540.792 375.979 543.115L562.529 656.202C559.494 660.085 555.868 661.931 551.768 662.26C547.489 662.603 542.645 661.298 537.363 658.814C526.794 653.843 514.693 644.262 502.24 634.337L501.545 633.783C489.419 624.117 476.992 614.211 465.451 608.139C466.587 608.097 467.606 608.051 468.468 608.002C469.504 607.943 470.325 607.881 470.854 607.815C470.987 607.798 471.106 607.781 471.207 607.763C471.305 607.745 471.402 607.724 471.484 607.698C471.524 607.685 471.577 607.666 471.631 607.636C471.659 607.62 471.696 607.597 471.735 607.564C471.756 607.546 471.783 607.52 471.809 607.486C471.829 607.461 471.849 607.431 471.866 607.396C471.91 607.307 471.933 607.195 471.912 607.075C471.892 606.961 471.839 606.878 471.794 606.825C471.769 606.796 471.744 606.773 471.721 606.754C471.703 606.739 471.685 606.727 471.671 606.718C471.654 606.707 471.638 606.698 471.623 606.69C471.607 606.681 471.593 606.674 471.58 606.669C471.529 606.646 471.479 606.63 471.436 606.619C471.391 606.607 471.344 606.596 471.294 606.586C471.196 606.567 471.077 606.55 470.94 606.533C470.665 606.5 470.295 606.468 469.824 606.438C468.279 606.337 465.581 606.246 461.442 606.173C451.128 601.506 441.518 600.342 433.616 605.99L379.424 602.522L363.522 592.885ZM586.551 445.877C587.078 439.041 587.521 433.648 587.868 430.139L588.763 430.149L588.552 430.144C588.763 430.149 588.763 430.148 588.763 430.148L588.763 430.144V430.137L588.763 430.128L588.765 430.067L588.77 429.825L588.792 428.879C588.81 428.049 588.837 426.83 588.87 425.272C588.936 422.157 589.028 417.686 589.13 412.266C589.333 401.425 589.578 386.785 589.741 371.59C589.904 356.396 589.985 340.644 589.863 327.579C589.741 314.532 589.416 304.121 588.758 299.64L588.754 299.615L588.748 299.592C588.167 297.26 587.828 293.396 587.628 288.347C587.427 283.311 587.366 277.141 587.326 270.221C587.318 268.724 587.31 267.191 587.302 265.628C587.239 252.75 587.166 237.773 586.418 222.936C585.581 206.302 583.895 189.812 580.417 176.627C578.678 170.035 576.486 164.247 573.712 159.674C570.951 155.121 567.596 151.743 563.512 150C559.577 147.113 557.066 145.55 555.215 144.887C554.273 144.55 553.479 144.436 552.741 144.51C552.005 144.585 551.364 144.843 550.728 145.187C550.318 145.409 549.886 145.681 549.427 145.969C549.193 146.117 548.951 146.269 548.702 146.421C547.949 146.88 547.076 147.372 545.979 147.842C543.921 148.724 541.044 149.54 536.676 149.878C541.164 140.913 542.655 133.83 541.688 128.35C540.686 122.67 537.06 118.805 531.64 116.4C526.241 114.005 519.039 113.043 510.777 113.13C502.508 113.218 493.134 114.357 483.368 116.198C463.834 119.88 442.679 126.377 425.542 132.929C416.973 136.205 409.401 139.497 403.533 142.462C400.6 143.944 398.086 145.348 396.084 146.629C394.34 147.746 392.962 148.783 392.034 149.713C391.107 148.817 389.784 147.972 388.141 147.166C386.254 146.242 383.908 145.354 381.175 144.5C375.709 142.794 368.654 141.212 360.531 139.749C344.283 136.822 323.713 134.361 302.94 132.327C282.164 130.293 261.175 128.685 244.085 127.466C237.584 127.002 231.649 126.595 226.505 126.242C219.038 125.73 213.239 125.332 209.792 125.042C214.76 120.662 217.797 117.69 219.242 115.882C219.625 115.402 219.911 114.986 220.091 114.634C220.257 114.311 220.395 113.929 220.297 113.574C220.242 113.372 220.117 113.207 219.944 113.098C219.783 112.997 219.602 112.956 219.439 112.943C219.118 112.916 218.727 112.984 218.304 113.1C216.609 113.565 213.587 115.049 209.723 117.195C205.838 119.351 201.051 122.206 195.801 125.449C174.803 138.42 146.323 157.658 138.371 163.495C136.313 165.007 133.859 167.92 131.307 171.825C128.748 175.741 126.066 180.695 123.561 186.328C119.278 195.962 115.504 207.606 113.763 219.475V125.437C113.763 118.94 116.344 112.708 120.939 108.113C125.534 103.519 131.765 100.938 138.263 100.938H588.263C594.761 100.938 600.993 103.519 605.587 108.113C610.182 112.708 612.763 118.94 612.763 125.437V700.437C612.764 704.785 611.609 709.054 609.415 712.806C607.221 716.559 604.069 719.661 600.281 721.793C596.493 723.926 592.205 725.012 587.859 724.94C583.512 724.868 579.263 723.641 575.548 721.385L575.288 721.812L575.547 721.385L381.273 603.643L433.171 606.963C433.177 606.977 433.183 606.991 433.19 607.004C433.271 607.16 433.4 607.259 433.498 607.321C433.602 607.386 433.722 607.438 433.844 607.482C434.088 607.57 434.401 607.644 434.762 607.709C435.127 607.775 435.557 607.834 436.042 607.888C437.978 608.103 440.866 608.237 444.159 608.31C450.251 608.444 457.783 608.372 463.39 608.207C463.848 608.434 464.307 608.669 464.767 608.909C476.284 614.926 488.728 624.845 500.969 634.602L501.617 635.119C514.037 645.018 526.239 654.687 536.938 659.719C542.29 662.236 547.32 663.62 551.848 663.257C556.398 662.892 560.391 660.766 563.651 656.379C564.075 655.904 564.473 655.202 564.854 654.324C565.244 653.428 565.629 652.317 566.011 651.013C566.775 648.404 567.536 644.988 568.291 640.904C569.802 632.734 571.298 621.847 572.753 609.299C575.663 584.203 578.412 552.43 580.783 522.393C582.243 503.905 583.56 486.066 584.684 470.847C585.386 461.342 586.013 452.859 586.551 445.877ZM113.763 700.437V244.976C114.998 251.902 117.421 258.432 121.394 264.144C128.712 274.667 141.234 282.335 161.053 284.633C138.076 293.497 127.544 315.361 124.069 342.294C120.493 370.017 124.366 403.257 129.94 433.643C132.728 448.841 135.944 463.336 138.871 476.083C139.599 479.252 140.309 482.311 140.99 485.247C143.049 494.125 144.844 501.865 146.075 508.034C146.894 512.139 147.458 515.53 147.686 518.089C147.799 519.369 147.827 520.426 147.764 521.251C147.699 522.092 147.544 522.626 147.349 522.918C147.258 523.054 147.168 523.122 147.085 523.156C147.002 523.191 146.886 523.209 146.715 523.177C146.349 523.109 145.817 522.829 145.091 522.224C143.655 521.027 141.681 518.743 139.071 515.203L138.18 515.605C147.93 561.102 148.04 577.157 147.249 583.482C147.053 585.055 146.8 586.028 146.621 586.716L146.598 586.805C146.438 587.418 146.302 587.937 146.448 588.472C146.596 589.016 147.015 589.517 147.67 590.223C147.896 590.467 148.156 590.741 148.457 591.058C149.068 591.702 149.846 592.522 150.851 593.63C157.154 602.125 158.866 608.642 158.5 614.014C158.146 619.186 155.868 623.369 153.694 627.36C153.597 627.536 153.502 627.712 153.406 627.888C151.172 631.998 149.111 635.994 149.902 640.571C150.688 645.115 154.251 650.09 162.763 656.317C162.79 668.577 164.767 676.856 168.415 681.899C172.126 687.029 177.507 688.737 184.044 687.982C190.55 687.23 198.251 684.041 206.747 679.339C215.251 674.632 224.598 668.382 234.403 661.467C239.917 657.578 245.576 653.479 251.313 649.322C265.999 638.684 281.204 627.669 295.837 618.837C306.007 612.698 315.878 607.629 325.078 604.481C333.757 601.512 341.804 600.266 348.929 601.415L150.979 721.385L151.238 721.812L150.979 721.385C147.26 723.641 143.008 724.866 138.659 724.935C134.311 725.004 130.022 723.914 126.234 721.777L125.988 722.212L126.234 721.777C122.45 719.644 119.302 716.545 117.11 712.795C114.919 709.045 113.764 704.78 113.763 700.437ZM162.763 655.074C154.745 649.1 151.588 644.452 150.888 640.401C150.164 636.215 152.027 632.52 154.285 628.366C154.387 628.177 154.491 627.986 154.595 627.795C156.754 623.836 159.129 619.478 159.497 614.082C159.885 608.402 158.051 601.65 151.64 593.014L151.625 592.995L151.609 592.977C150.59 591.853 149.784 591.003 149.165 590.351C148.869 590.04 148.616 589.773 148.403 589.543C147.712 588.797 147.485 588.475 147.413 588.21C147.345 587.961 147.396 587.71 147.589 586.968C147.772 586.262 148.037 585.242 148.242 583.606C149.042 577.206 148.914 561.426 139.629 517.606C141.6 520.164 143.193 521.943 144.451 522.992C145.212 523.627 145.906 524.043 146.531 524.16C146.855 524.22 147.174 524.203 147.471 524.079C147.768 523.955 148.001 523.74 148.18 523.475C148.523 522.962 148.693 522.214 148.761 521.327C148.83 520.425 148.798 519.307 148.682 518.001C148.45 515.386 147.876 511.952 147.056 507.838C145.822 501.652 144.021 493.891 141.961 485.007C141.28 482.074 140.572 479.02 139.846 475.859C136.919 463.117 133.708 448.639 130.924 433.462C125.354 403.099 121.505 369.985 125.061 342.422C128.585 315.112 139.351 293.393 162.763 285.065V655.074ZM350.054 542.26L163.763 655.175V150.937H391.814L392.039 151.19L392.263 150.937H535.013L534.986 150.989L535.847 150.937H562.763V655.175L376.497 542.26C372.511 539.843 367.938 538.564 363.276 538.564C358.613 538.564 354.041 539.843 350.054 542.26ZM162.763 150.437V283.811C142.226 281.771 129.524 274.082 122.215 263.573C116.459 255.297 114.01 245.219 113.763 234.656V231.013C113.804 229.213 113.904 227.404 114.058 225.592C115.227 211.823 119.501 197.921 124.475 186.734C126.961 181.142 129.619 176.237 132.144 172.372C134.678 168.495 137.053 165.704 138.963 164.301C146.888 158.484 175.345 139.261 196.326 126.3C201.571 123.06 206.343 120.215 210.208 118.069C214.093 115.912 217.01 114.492 218.569 114.064C218.916 113.969 219.155 113.935 219.305 113.937C219.287 113.992 219.256 114.071 219.201 114.178C219.065 114.444 218.826 114.8 218.461 115.258C216.996 117.091 213.752 120.251 208.254 125.061L207.378 125.828L208.538 125.935C211.758 126.233 218.062 126.665 226.461 127.242C231.602 127.594 237.529 128.001 244.014 128.464C261.101 129.682 282.08 131.289 302.842 133.322C323.607 135.355 344.145 137.813 360.353 140.733C368.459 142.193 375.468 143.766 380.877 145.455C383.581 146.299 385.875 147.17 387.701 148.064C388.97 148.686 389.997 149.312 390.775 149.937H163.263H162.763V150.437ZM540.703 128.524C541.634 133.796 540.174 140.809 535.526 149.937H393.255C394.083 149.202 395.212 148.375 396.624 147.471C398.588 146.214 401.069 144.827 403.984 143.355C409.814 140.409 417.353 137.13 425.899 133.863C442.994 127.327 464.09 120.849 483.553 117.181C493.284 115.346 502.596 114.217 510.788 114.13C518.988 114.044 526.025 115.003 531.234 117.314C536.421 119.615 539.771 123.24 540.703 128.524ZM554.878 145.828C556.395 146.372 558.478 147.612 561.723 149.937H542.836C544.225 149.59 545.383 149.185 546.373 148.761C547.528 148.266 548.445 147.749 549.222 147.275C549.503 147.104 549.759 146.942 550 146.791C550.438 146.515 550.822 146.273 551.203 146.067C551.777 145.757 552.286 145.562 552.842 145.505C553.397 145.449 554.039 145.528 554.878 145.828ZM563.763 654.311V151.212C567.311 152.92 570.316 156.002 572.857 160.192C575.563 164.654 577.725 170.342 579.451 176.882C582.901 189.965 584.583 206.371 585.42 222.986C586.166 237.799 586.239 252.752 586.302 265.632C586.31 267.195 586.318 268.728 586.326 270.227C586.366 277.145 586.427 283.332 586.628 288.387C586.828 293.413 587.167 297.364 587.772 299.809C588.415 304.221 588.741 314.541 588.863 327.589C588.985 340.644 588.904 356.388 588.741 371.58C588.578 386.771 588.334 401.408 588.13 412.247C588.031 417.516 587.941 421.887 587.876 424.988C587.848 424.998 587.821 425.01 587.795 425.023C587.684 425.084 587.621 425.169 587.594 425.209C587.587 425.219 587.58 425.23 587.574 425.241C587.553 425.277 587.537 425.311 587.525 425.339C587.494 425.411 587.47 425.492 587.449 425.571C587.368 425.884 587.281 426.432 587.188 427.171C586.808 430.153 586.255 436.719 585.554 445.8C585.015 452.79 584.388 461.276 583.686 470.781C582.563 485.996 581.246 503.825 579.787 522.314C577.415 552.349 574.668 584.107 571.76 609.184C570.306 621.724 568.813 632.585 567.308 640.722C566.555 644.792 565.802 648.17 565.051 650.732C564.676 652.013 564.304 653.081 563.937 653.926C563.879 654.061 563.821 654.189 563.763 654.311ZM377.267 602.384L351.934 600.764L363.263 593.897L377.267 602.384ZM444.181 607.31C441.494 607.25 439.099 607.151 437.282 607.002C446.383 607.011 453.334 607.057 458.509 607.127C459.473 607.14 460.375 607.154 461.217 607.169C461.283 607.199 461.348 607.229 461.414 607.259C456.102 607.385 449.573 607.429 444.181 607.31ZM458.813 606.131C458.717 606.13 458.62 606.129 458.523 606.127C452.992 606.053 445.44 606.005 435.411 606C442.092 601.926 450.052 602.579 458.813 606.131ZM270.856 299.579L270.842 299.629L270.839 299.681C270.164 310.47 271.746 321.281 275.485 331.423C279.22 341.555 285.026 350.798 292.531 358.562C312.633 385.628 336.326 409.857 362.957 430.532L363.263 430.77L363.57 430.533C390.263 409.839 414.007 385.6 434.145 358.487C441.652 350.724 447.458 341.481 451.194 331.349C454.933 321.206 456.514 310.395 455.837 299.606L455.835 299.566L455.826 299.527C454.086 291.872 449.641 285.103 443.307 280.465C436.974 275.826 429.178 273.631 421.355 274.283C413.533 274.935 406.208 278.39 400.73 284.013C395.251 289.635 391.988 297.047 391.539 304.884L391.539 304.885C391.194 311.146 388.461 317.037 383.903 321.344C379.346 325.652 373.31 328.047 367.039 328.037H367.038H359.663H359.662C353.391 328.047 347.356 325.652 342.798 321.344C338.24 317.037 335.507 311.146 335.162 304.885L335.162 304.873L335.161 304.861C334.369 297.143 330.995 289.918 325.585 284.356C320.175 278.794 313.046 275.222 305.353 274.217L305.321 274.212H305.288H305.284H305.28H305.275H305.271H305.267H305.263H305.258H305.254H305.25H305.246H305.241H305.237H305.233H305.229H305.224H305.22H305.216H305.212H305.207H305.203H305.199H305.195H305.19H305.186H305.182H305.178H305.173H305.169H305.165H305.16H305.156H305.152H305.148H305.143H305.139H305.135H305.131H305.126H305.122H305.118H305.114H305.109H305.105H305.101H305.096H305.092H305.088H305.084H305.079H305.075H305.071H305.067H305.062H305.058H305.054H305.049H305.045H305.041H305.037H305.032H305.028H305.024H305.02H305.015H305.011H305.007H305.002H304.998H304.994H304.99H304.985H304.981H304.977H304.972H304.968H304.964H304.96H304.955H304.951H304.947H304.942H304.938H304.934H304.93H304.925H304.921H304.917H304.912H304.908H304.904H304.9H304.895H304.891H304.887H304.882H304.878H304.874H304.87H304.865H304.861H304.857H304.852H304.848H304.844H304.84H304.835H304.831H304.827H304.822H304.818H304.814H304.81H304.805H304.801H304.797H304.792H304.788H304.784H304.78H304.775H304.771H304.767H304.762H304.758H304.754H304.749H304.745H304.741H304.737H304.732H304.728H304.724H304.719H304.715H304.711H304.707H304.702H304.698H304.694H304.689H304.685H304.681H304.676H304.672H304.668H304.664H304.659H304.655H304.651H304.646H304.642H304.638H304.633H304.629H304.625H304.621H304.616H304.612H304.608H304.603H304.599H304.595H304.591H304.586H304.582H304.578H304.573H304.569H304.565H304.56H304.556H304.552H304.548H304.543H304.539H304.535H304.53H304.526H304.522H304.517H304.513H304.509H304.505H304.5H304.496H304.492H304.487H304.483H304.479H304.475H304.47H304.466H304.462H304.457H304.453H304.449H304.444H304.44H304.436H304.432H304.427H304.423H304.419H304.414H304.41H304.406H304.401H304.397H304.393H304.389H304.384H304.38H304.376H304.371H304.367H304.363H304.359H304.354H304.35H304.346H304.341H304.337H304.333H304.328H304.324H304.32H304.316H304.311H304.307H304.303H304.298H304.294H304.29H304.286H304.281H304.277H304.273H304.268H304.264H304.26H304.256H304.251H304.247H304.243H304.238H304.234H304.23H304.226H304.221H304.217H304.213H304.208H304.204H304.2H304.196H304.191H304.187H304.183H304.178H304.174H304.17H304.166H304.161H304.157H304.153H304.148H304.144H304.14H304.136H304.131H304.127H304.123H304.118H304.114H304.11H304.106H304.101H304.097H304.093H304.089H304.084H304.08H304.076H304.071H304.067H304.063H304.059H304.054H304.05H304.046H304.041H304.037H304.033H304.029H304.024H304.02H304.016H304.012H304.007H304.003H303.999H303.995H303.99H303.986H303.982H303.977H303.973H303.969H303.965H303.96H303.956H303.952H303.948H303.943H303.939H303.935H303.931H303.926H303.922H303.918H303.914H303.909H303.905H303.901H303.896H303.892H303.888H303.884H303.879H303.875H303.871H303.867H303.862H303.858H303.854H303.85H303.845H303.841H303.837H303.833H303.828H303.824H303.82H303.816H303.811H303.807H303.803H303.799H303.794H303.79H303.786H303.782H303.777H303.773H303.769H303.765H303.761H303.756H303.752H303.748H303.744H303.739H303.735H303.731H303.727H303.722H303.718H303.714H303.71H303.705H303.701H303.697H303.693H303.689H303.684H303.68H303.676H303.672H303.667H303.663H303.659H303.655H303.651H303.646H303.642H303.638H303.634H303.629H303.625H303.621H303.617H303.613H303.608H303.604H303.6H303.596H303.592H303.587H303.583H303.579H303.575H303.57H303.566H303.562H303.558H303.554H303.549H303.545H303.541H303.537H303.533H303.528H303.524H303.52H303.516H303.512H303.507H303.503H303.499H303.495H303.491H303.486H303.482H303.478H303.474H303.47H303.466H303.461H303.457H303.453H303.449H303.445H303.44H303.436H303.432H303.428H303.424H303.42H303.415H303.411H303.407H303.403H303.399H303.395H303.39H303.386H303.382H303.378H303.374H303.369H303.365H303.361H303.357H303.353H303.349H303.345H303.34H303.336H303.332H303.328H303.324H303.32H303.315H303.311H303.307H303.303H303.299H303.295H303.291H303.286H303.282H303.278H303.274H303.27H303.266H303.262H303.257H303.253H303.249H303.245H303.241H303.237H303.233H303.228H303.224H303.22H303.216H303.212H303.208H303.204H303.2H303.195H303.191H303.187H303.183H303.179H303.175H303.171H303.167H303.162H303.158H303.154H303.15H303.146H303.142H303.138H303.134H303.13H303.125H303.121H303.117H303.113H303.105L303.097 274.213C295.721 274.453 288.615 277.044 282.815 281.607C277.016 286.17 272.826 292.467 270.856 299.579Z" stroke="#F34333"/>
<path d="M471.891 244.485C441.835 214.41 393.104 214.382 363.029 244.429C332.982 214.354 284.232 214.335 254.176 244.382C224.091 274.419 224.063 323.16 254.11 353.235L362.926 462.154L471.826 353.347C501.91 323.3 501.938 274.56 471.891 244.485Z" fill="white"/>
<path d="M362.915 475.406L247.48 359.859C231.177 343.538 222.205 321.844 222.215 298.781C222.234 275.719 231.234 254.044 247.546 237.741C263.84 221.456 285.515 212.484 308.568 212.484C328.659 212.484 347.69 219.291 363.046 231.816C378.384 219.328 397.387 212.541 417.44 212.541C440.521 212.541 462.215 221.531 478.537 237.863C494.84 254.184 503.812 275.869 503.802 298.941C503.784 322.003 494.784 343.688 478.471 359.991L362.915 475.406ZM308.559 231.234C290.512 231.234 273.552 238.256 260.793 251.006C248.015 263.775 240.974 280.744 240.955 298.8C240.946 316.856 247.968 333.834 260.727 346.613L362.924 448.894L465.187 346.706C477.965 333.947 485.005 316.978 485.024 298.912C485.034 280.856 478.012 263.878 465.252 251.1C452.474 238.322 435.487 231.281 417.412 231.281C399.365 231.281 382.405 238.303 369.637 251.053L362.999 257.681L356.38 251.053C343.63 238.275 326.634 231.234 308.559 231.234Z" fill="white"/>
</svg>
