<svg width="800" height="800" viewBox="0 0 800 800" fill="none" xmlns="http://www.w3.org/2000/svg">
<g clip-path="url(#clip0_2512_98)">
<path d="M400 773.336L380 756.669C290 690.003 0 450.003 0 243.336C0 126.669 96.6667 33.3359 216.667 33.3359C290 33.3359 360 70.0026 400 130.003C440 70.0026 510 33.3359 583.333 33.3359C703.333 33.3359 800 126.669 800 243.336C800 453.336 510 690.003 420 760.003L400 773.336ZM216.667 96.6693C133.333 96.6693 66.6667 160.003 66.6667 240.003C66.6667 376.669 236.667 556.669 400 686.669C563.333 556.669 733.333 376.669 733.333 240.003C733.333 160.003 666.667 96.6693 583.333 96.6693C530 96.6693 483.333 123.336 456.667 163.336L400 253.336L343.333 166.669C316.667 123.336 270 96.6693 216.667 96.6693Z" fill="#F34333"/>
</g>
<defs>
<clipPath id="clip0_2512_98">
<rect width="800" height="800" fill="white"/>
</clipPath>
</defs>
</svg>
