<svg width="800" height="800" viewBox="0 0 800 800" fill="none" xmlns="http://www.w3.org/2000/svg">
<path d="M442.377 190.897C442.377 199.085 442.377 225.771 442.377 263.683H572.727L558.595 379.881H442.377C442.377 559.081 442.377 799.217 442.377 799.217H288.118C288.118 799.217 288.118 562.26 288.118 379.881H207.738V263.683H288.118C288.118 217.602 288.118 184.835 288.118 175.711C288.118 132.242 284.843 111.617 303.313 77.9331C321.793 44.2502 373.918 -0.271633 464.073 0.800242C554.249 1.91118 592.26 10.5862 592.26 10.5862L572.727 134.425C572.727 134.425 515.145 119.221 486.88 124.639C458.654 130.06 442.377 147.447 442.377 190.897Z" fill="#F34333"/>
</svg>
