<svg width="800" height="800" viewBox="0 0 800 800" fill="none" xmlns="http://www.w3.org/2000/svg">
<path d="M698.335 137.664C688.668 123.664 676.335 111.331 662.335 101.664C630.668 78.6641 589.335 66.6641 539.668 66.6641H260.335C253.668 66.6641 247.001 66.9974 240.668 67.6641C131.335 74.6641 66.668 145.664 66.668 260.331V539.664C66.668 589.331 78.668 630.664 101.668 662.331C111.335 676.331 123.668 688.664 137.668 698.331C165.001 718.331 199.668 729.997 240.668 732.664C247.001 732.997 253.668 733.331 260.335 733.331H539.668C661.001 733.331 733.335 660.997 733.335 539.664V260.331C733.335 210.664 721.335 169.331 698.335 137.664ZM282.001 355.997L265.668 338.997C257.001 330.331 250.001 314.664 250.001 303.997V263.997C250.001 242.997 265.668 227.331 285.001 227.331H356.335C370.001 227.331 378.335 242.331 371.001 253.997L309.335 353.331C303.335 362.997 289.668 364.331 282.001 355.997ZM550.001 300.664C550.001 314.664 541.335 331.997 532.668 340.664L457.668 406.997C447.335 415.664 440.335 432.997 440.335 446.997V521.997C440.335 532.331 433.335 546.331 424.668 551.664L400.001 567.331C377.335 581.331 346.001 565.664 346.001 537.664V445.331C346.001 432.997 339.001 417.331 332.001 408.664L324.001 399.997C318.668 394.331 317.668 385.664 321.668 378.664L411.001 235.331C414.335 230.331 419.668 226.997 425.668 226.997H515.001C534.335 226.997 550.001 242.664 550.001 261.997V300.664Z" fill="#204391"/>
</svg>
