<?xml version="1.0" encoding="UTF-8"?>
<svg id="Layer_1" data-name="Layer 1" xmlns="http://www.w3.org/2000/svg" viewBox="0 0 255.35 246.21">
  <path fill="#fff" d="M205.97,149.29c-10.07,0-18.2-8.28-17.96-18.4.23-9.75,8.34-17.6,18.09-17.53,5.3.04,10.06,2.38,13.32,6.07.38.43,1.03.49,1.49.15l15.06-10.94c.51-.37.62-1.1.23-1.6-7.22-9.33-18.4-14.84-30.24-14.84-20.97,0-38.23,17.26-38.23,38.23s17.26,38.23,38.23,38.23c9.29,0,18.25-3.39,25.22-9.49.48-.42.51-1.15.08-1.61l-11.84-12.7c-.41-.44-1.1-.48-1.56-.08-3.17,2.8-7.33,4.5-11.9,4.5Z"/>
  <path fill="#fff" d="M57.13,149.73c-10.07,0-18.2-8.28-17.96-18.4.23-9.75,8.34-17.6,18.09-17.53,5.3.04,10.06,2.38,13.32,6.07.38.43,1.03.49,1.49.15l15.06-10.94c.51-.37.62-1.1.23-1.6-7.22-9.33-18.4-14.84-30.24-14.84-20.97,0-38.23,17.26-38.23,38.23s17.26,38.23,38.23,38.23c9.29,0,18.25-3.39,25.22-9.49.48-.42.51-1.15.08-1.61l-11.84-12.7c-.41-.44-1.1-.48-1.56-.08-3.17,2.8-7.33,4.5-11.9,4.5Z"/>
  <path fill="#fff" d="M139.19,107.03l22.76-20.83c.34-.31.36-.83.05-1.16l-11.72-12.81c-.31-.34-.83-.36-1.16-.05l-76.69,70.18c-.34.31-.36.83-.05,1.16l11.72,12.81c.31.34.83.36,1.16.05l10.5-9.61c2.88,16.37,17.48,28.82,35.05,28.82,19.65,0,35.57-15.57,35.57-34.77,0-16.38-11.59-30.12-27.2-33.8ZM130,158.81c-9.98-.19-18.12-8.33-18.3-18.31-.08-4.66,1.54-8.93,4.29-12.25l3.78-3.45c3.16-2,6.74-3.33,10.73-3.3,10.06.07,18.33,8.25,18.51,18.32.19,10.58-8.43,19.19-19.01,18.99Z"/>
  <circle fill="#ea1e26" cx="100.96" cy="92.64" r="13.42"/>
  <circle fill="#ea1e26" cx="130.01" cy="140.15" r="13.42"/>
</svg>
