<svg width="800" height="800" viewBox="0 0 800 800" fill="none" xmlns="http://www.w3.org/2000/svg">
<g clip-path="url(#clip0_2518_2)">
<path d="M337.138 149.705L330.356 254.515L329.701 268.399L326.708 268.712C178.767 286.101 66.668 412.237 66.668 566.667C66.668 581.901 67.806 597.001 70.0573 611.884C79.366 673.407 86.364 679.357 129.132 628.491C139.66 615.967 151.41 604.797 163.791 594.157C208.327 557.414 263.545 535.954 322.282 533.557L329.801 533.401L331.851 574.361L337.385 652.534C340.028 679.334 368.225 697.644 394.178 683.007C405.888 676.397 417.335 669.364 428.805 662.354C488.401 625.064 544.165 582.221 598.511 537.737C630.491 511.087 658.528 485.814 682.381 462.814C693.358 452.021 704.348 441.254 714.988 430.124C730.395 414.001 731.918 387.297 715.791 370.414C678.678 331.569 626.208 282.918 560.905 231.35C507.981 189.942 453.235 151.258 395.238 117.286C367.345 101.391 339.675 123.2 337.138 149.705Z" fill="#204391"/>
</g>
<defs>
<clipPath id="clip0_2518_2">
<rect width="800" height="800" fill="white"/>
</clipPath>
</defs>
</svg>
