<svg width="800" height="800" viewBox="0 0 800 800" fill="none" xmlns="http://www.w3.org/2000/svg">
<path d="M175 125C175 118.37 172.366 112.011 167.678 107.322C162.99 102.634 156.631 100 150 100C143.37 100 137.011 102.634 132.323 107.322C127.634 112.011 125 118.37 125 125V564.65L67.7003 507.3C63.006 502.606 56.6391 499.968 50.0003 499.968C43.3615 499.968 36.9947 502.606 32.3003 507.3C27.606 511.994 24.9688 518.361 24.9688 525C24.9687 531.639 27.606 538.006 32.3003 542.7L132.3 642.65L132.65 643C137.344 647.577 143.656 650.114 150.212 650.057C156.768 650.001 163.036 647.357 167.65 642.7L267.65 542.7C269.975 540.379 271.819 537.623 273.078 534.589C274.338 531.555 274.987 528.303 274.989 525.018C274.992 521.733 274.347 518.48 273.092 515.444C271.837 512.408 269.996 509.649 267.675 507.325C265.354 505.001 262.598 503.156 259.564 501.897C256.53 500.638 253.278 499.988 249.993 499.986C246.708 499.984 243.455 500.628 240.419 501.883C237.384 503.138 234.625 504.979 232.3 507.3L175 564.65V125ZM350 175C350 168.37 352.634 162.011 357.323 157.322C362.011 152.634 368.37 150 375 150H725C731.631 150 737.99 152.634 742.678 157.322C747.366 162.011 750 168.37 750 175C750 181.63 747.366 187.989 742.678 192.678C737.99 197.366 731.631 200 725 200H375C368.37 200 362.011 197.366 357.323 192.678C352.634 187.989 350 181.63 350 175ZM375 300C368.37 300 362.011 302.634 357.323 307.322C352.634 312.011 350 318.37 350 325C350 331.63 352.634 337.989 357.323 342.678C362.011 347.366 368.37 350 375 350H625C631.631 350 637.99 347.366 642.678 342.678C647.366 337.989 650 331.63 650 325C650 318.37 647.366 312.011 642.678 307.322C637.99 302.634 631.631 300 625 300H375ZM375 450C368.37 450 362.011 452.634 357.323 457.322C352.634 462.011 350 468.37 350 475C350 481.63 352.634 487.989 357.323 492.678C362.011 497.366 368.37 500 375 500H525C531.631 500 537.99 497.366 542.678 492.678C547.366 487.989 550 481.63 550 475C550 468.37 547.366 462.011 542.678 457.322C537.99 452.634 531.631 450 525 450H375ZM375 600C368.37 600 362.011 602.634 357.323 607.322C352.634 612.011 350 618.37 350 625C350 631.63 352.634 637.989 357.323 642.678C362.011 647.366 368.37 650 375 650H425C431.631 650 437.99 647.366 442.678 642.678C447.366 637.989 450 631.63 450 625C450 618.37 447.366 612.011 442.678 607.322C437.99 602.634 431.631 600 425 600H375Z" fill="white"/>
</svg>
