<svg width="800" height="800" viewBox="0 0 800 800" fill="none" xmlns="http://www.w3.org/2000/svg">
<path d="M150 50H650C705 50 750 95 750 150V650C750 705 705 750 650 750H150C95 750 50 705 50 650V150C50 95 95 50 150 50Z" fill="#F34333"/>
<path d="M532.5 242.5C517.5 242.5 502.5 255 502.5 272.5C502.5 290 515 302.5 532.5 302.5C550 302.5 562.5 290 562.5 272.5C560 255 547.5 242.5 532.5 242.5Z" fill="white"/>
<path d="M400 280C332.5 280 277.5 335 277.5 402.5C277.5 470 332.5 525 400 525C467.5 525 522.5 470 522.5 402.5C525 335 470 280 400 280ZM400 482.5C357.5 482.5 320 447.5 320 402.5C320 360 355 322.5 400 322.5C442.5 322.5 480 357.5 480 402.5C480 447.5 445 482.5 400 482.5Z" fill="white"/>
<path d="M500 150H300C217.5 150 150 217.5 150 300V500C150 582.5 217.5 650 300 650H500C582.5 650 650 582.5 650 500V300C650 217.5 582.5 150 500 150ZM602.5 500C602.5 557.5 555 602.5 500 602.5H300C242.5 602.5 197.5 555 197.5 500V300C197.5 242.5 245 197.5 300 197.5H500C557.5 197.5 602.5 245 602.5 300V500Z" fill="white"/>
</svg>
